<svg xmlns="http://www.w3.org/2000/svg" viewBox="0 0 1020.88 490.72"><defs><style>.cls-1{fill:#b0d4ff;}.cls-2{fill:#95c0f4;}.cls-3{fill:#cae5ff;}.cls-4{fill:#78acea;}.cls-5{fill:#2b478b;}.cls-6{fill:#fff;}</style></defs><g id="Camada_2" data-name="Camada 2"><g id="Слой_1" data-name="Слой 1"><path class="cls-1" d="M793.1,485.73h.35a3.63,3.63,0,0,0,3.63-3.71l-5.5-238.4-16.21-1.9L789.19,482A3.92,3.92,0,0,0,793.1,485.73Z"/><path class="cls-2" d="M887.52,485.73h.35A3.63,3.63,0,0,0,891.5,482L886,243.62l-16.21-1.9L883.61,482A3.92,3.92,0,0,0,887.52,485.73Z"/><path class="cls-1" d="M627,485.73h-.34A3.62,3.62,0,0,1,623,482l5.5-238.4,16.2-1.9L630.9,482A3.92,3.92,0,0,1,627,485.73Z"/><path class="cls-1" d="M898.26,228.83V65.46a52.05,52.05,0,0,0-52-52H728.51a52.05,52.05,0,0,0-52,52.05V235.07Z"/><path class="cls-2" d="M671,228.83H898.26a0,0,0,0,1,0,0v25.79a0,0,0,0,1,0,0H655.37a0,0,0,0,1,0,0V244.46A15.63,15.63,0,0,1,671,228.83Z" transform="translate(1553.63 483.45) rotate(180)"/><rect class="cls-3" x="616.58" y="228.83" width="195.04" height="25.79" rx="11.56" transform="translate(1428.21 483.45) rotate(180)"/><path class="cls-1" d="M105.15,486.37h-.34a3.63,3.63,0,0,1-3.63-3.71l5.5-238.41,16.21-1.89L109.07,482.67A3.92,3.92,0,0,1,105.15,486.37Z"/><path class="cls-2" d="M10.74,486.37h-.35a3.63,3.63,0,0,1-3.63-3.71l5.5-238.41,16.21-1.89L14.65,482.67A3.92,3.92,0,0,1,10.74,486.37Z"/><path class="cls-1" d="M271.28,486.37h.34a3.63,3.63,0,0,0,3.63-3.71l-5.5-238.41-16.2-1.89,13.81,240.31A3.92,3.92,0,0,0,271.28,486.37Z"/><path class="cls-1" d="M0,229.47V66.1a52,52,0,0,1,52.05-52h117.7A52,52,0,0,1,221.8,66.1V235.71Z"/><path class="cls-2" d="M0,229.47H242.89a0,0,0,0,1,0,0v25.79a0,0,0,0,1,0,0H15.63A15.63,15.63,0,0,1,0,239.63V229.47A0,0,0,0,1,0,229.47Z"/><rect class="cls-1" x="86.63" y="229.47" width="195.04" height="25.79" rx="11.56"/><path class="cls-4" d="M981.48,490.72h.46a4.94,4.94,0,0,0,4.79-5.2l-7.27-333.8L958,149.08l18.28,336.47A5.31,5.31,0,0,0,981.48,490.72Z"/><path class="cls-4" d="M112.74,490.72h-.46a5,5,0,0,1-4.79-5.2l7.27-333.8,21.43-2.64L117.92,485.55A5.33,5.33,0,0,1,112.74,490.72Z"/><rect class="cls-4" x="76.94" y="117.59" width="943.94" height="40.28" rx="13.6"/><polygon class="cls-5" points="703.73 117.59 546.54 117.59 499.26 0 656.21 0 703.73 117.59"/><polygon class="cls-5" points="544.7 113 752.27 113 752.27 117.59 546.54 117.59 544.7 113"/><path class="cls-6" d="M586.22,58.79c-1.18-4.13,1.21-7.48,5.34-7.48a10.72,10.72,0,0,1,9.63,7.48c1.19,4.14-1.2,7.49-5.34,7.49S587.41,62.93,586.22,58.79Z"/></g></g></svg>