<svg xmlns="http://www.w3.org/2000/svg" viewBox="0 0 812.99 1021.79"><defs><style>.cls-1{fill:#95c0f4;}.cls-2{fill:#dfedfb;}.cls-3{fill:#fff;}.cls-4{fill:#b0d4ff;}.cls-5{fill:#ffa412;}.cls-6{fill:#eef6ff;}.cls-7{fill:#78acea;}.cls-8{fill:#bae8e3;}.cls-9{fill:#a1d6ce;}.cls-10{fill:#f99746;}.cls-11{fill:#233862;}.cls-12{fill:#213f7a;}.cls-13{fill:#b0d0ff;}.cls-14{fill:#ffb27d;}.cls-15{fill:#e2915a;}.cls-16{fill:#98baf4;}</style></defs><g id="Camada_2" data-name="Camada 2"><g id="Слой_1" data-name="Слой 1"><rect class="cls-1" width="678.53" height="585.74"/><rect class="cls-2" x="12.92" y="9.76" width="652.42" height="564.3"/><polygon class="cls-3" points="240.94 255.28 97.98 255.28 97.98 76.76 122.22 54.91 240.94 54.91 240.94 255.28"/><polygon class="cls-4" points="97.98 76.76 121.44 76.76 122.22 54.91 97.98 76.76"/><rect class="cls-4" x="146.58" y="72.28" width="45.77" height="2.18"/><rect class="cls-4" x="135.8" y="78.82" width="67.33" height="2.18"/><rect class="cls-4" x="114.91" y="120.82" width="111.79" height="2.8"/><rect class="cls-4" x="114.91" y="129.33" width="111.79" height="2.8"/><rect class="cls-4" x="114.91" y="137.84" width="111.79" height="2.8"/><rect class="cls-4" x="114.91" y="146.36" width="111.79" height="2.8"/><rect class="cls-4" x="114.91" y="237.44" width="111.79" height="2.8"/><polygon class="cls-3" points="406.02 502.96 263.06 502.96 263.06 324.44 287.3 302.59 406.02 302.59 406.02 502.96"/><polygon class="cls-4" points="263.06 324.44 286.52 324.44 287.3 302.59 263.06 324.44"/><rect class="cls-4" x="311.65" y="319.96" width="45.78" height="2.18"/><rect class="cls-4" x="300.88" y="326.5" width="67.33" height="2.18"/><rect class="cls-4" x="279.98" y="368.5" width="111.79" height="2.8"/><rect class="cls-4" x="279.98" y="377.01" width="111.79" height="2.8"/><rect class="cls-4" x="279.98" y="385.52" width="111.79" height="2.8"/><rect class="cls-4" x="279.98" y="394.04" width="111.79" height="2.8"/><rect class="cls-4" x="279.98" y="420.22" width="111.79" height="2.8"/><rect class="cls-4" x="279.98" y="428.74" width="111.79" height="2.8"/><rect class="cls-4" x="279.98" y="438.61" width="111.79" height="2.8"/><rect class="cls-4" x="407.75" y="54.91" width="78.94" height="69.6"/><path class="cls-5" d="M443.77,63.19a3.46,3.46,0,1,1,3.46,3.46A3.45,3.45,0,0,1,443.77,63.19Z"/><rect class="cls-3" x="407.76" y="149.04" width="78.94" height="69.6" transform="translate(-11.72 31.59) rotate(-3.99)"/><path class="cls-4" d="M442.23,161.93a3.46,3.46,0,1,1,3.69,3.21A3.47,3.47,0,0,1,442.23,161.93Z"/><rect class="cls-3" x="145.43" y="405.44" width="78.94" height="69.6" transform="translate(-30.21 13.94) rotate(-3.99)"/><path class="cls-4" d="M179.9,418.33a3.46,3.46,0,1,1,3.69,3.21A3.47,3.47,0,0,1,179.9,418.33Z"/><rect class="cls-3" x="44.18" y="453.12" width="78.94" height="69.6" transform="translate(-5 0.88) rotate(-0.59)"/><path class="cls-4" d="M80,465.76a3.46,3.46,0,1,1,3.49,3.42A3.45,3.45,0,0,1,80,465.76Z"/><rect class="cls-6" x="519.25" y="194.81" width="78.94" height="69.6" transform="matrix(0.98, 0.18, -0.18, 0.98, 49.11, -94.71)"/><path class="cls-7" d="M560.22,204.11a3,3,0,1,1,2.43,3.48A3,3,0,0,1,560.22,204.11Z"/><rect class="cls-6" x="286.23" y="149.04" width="78.94" height="69.6" transform="translate(-17.89 36.11) rotate(-6.18)"/><path class="cls-7" d="M320,158.94a3,3,0,1,1,3.31,2.66A3,3,0,0,1,320,158.94Z"/><rect class="cls-8" x="85.47" y="316.97" width="78.94" height="69.6" transform="translate(-70.61 33.79) rotate(-12.04)"/><path class="cls-5" d="M118,329.45a3,3,0,1,1,4.16-.88A3,3,0,0,1,118,329.45Z"/><polygon class="cls-3" points="363.27 124.5 288.13 124.5 288.13 74.02 308.93 54.91 363.27 54.91 363.27 124.5"/><polygon class="cls-4" points="287.73 74.02 308.25 74.02 308.93 54.91 287.73 74.02"/><path class="cls-4" d="M326,61.34a2.47,2.47,0,1,1,2.48,2.48A2.47,2.47,0,0,1,326,61.34Z"/><polygon class="cls-3" points="582.8 537.76 507.66 537.76 507.66 487.27 528.47 468.16 582.8 468.16 582.8 537.76"/><polygon class="cls-4" points="507.26 487.27 527.79 487.27 528.47 468.16 507.26 487.27"/><path class="cls-4" d="M545.51,474.6a2.47,2.47,0,1,1,2.47,2.47A2.47,2.47,0,0,1,545.51,474.6Z"/><polygon class="cls-3" points="617.08 437.57 541.94 437.57 541.94 387.09 562.74 367.97 617.08 367.97 617.08 437.57"/><polygon class="cls-4" points="541.54 387.09 562.06 387.09 562.74 367.97 541.54 387.09"/><path class="cls-4" d="M579.78,374.41a2.47,2.47,0,1,1,2.47,2.47A2.48,2.48,0,0,1,579.78,374.41Z"/><polygon class="cls-8" points="517.92 437.57 442.78 437.57 442.78 387.09 463.59 367.97 517.92 367.97 517.92 437.57"/><polygon class="cls-9" points="442.38 387.09 462.91 387.09 463.59 367.97 442.38 387.09"/><path class="cls-10" d="M480.63,374.41a2.47,2.47,0,1,1,2.47,2.47A2.47,2.47,0,0,1,480.63,374.41Z"/><polygon class="cls-8" points="638.28 107.08 563.14 107.08 563.14 56.6 583.95 37.48 638.28 37.48 638.28 107.08"/><polygon class="cls-9" points="562.74 56.6 583.26 56.6 583.95 37.48 562.74 56.6"/><path class="cls-10" d="M601,43.92a2.47,2.47,0,1,1,2.47,2.47A2.47,2.47,0,0,1,601,43.92Z"/><path class="cls-11" d="M714.46,1021.36s2.07-16.1,6.85-25.68,35.25-3.48,35.25-3.48,6.09,5.22,7.4,29.59Z"/><path class="cls-11" d="M610.68,1021.14c7.16-4.37,3.08-37,3.08-37s-33.35-26.68-37.93-6.25-31.69,29.6-47.11,32.1c-10.65,1.73-14,7.62-15,11.11Z"/><path class="cls-12" d="M679.76,784.1a153.71,153.71,0,0,0-2.45,18c-3.1,60.48-50.9,198.76-59.45,202-13.23,5-34.07-5.62-45-9.09-4.52-1.45-7.56-6-6.56-10.62C590,875.54,598.71,718.82,601.87,626c1.6-46.73,9.62-79,9.62-79s116.6-31.11,117.29,8.25C729.4,590.08,690.16,726.65,679.76,784.1Z"/><path class="cls-11" d="M679.76,784.1,601.87,626c1.6-46.73,9.62-79,9.62-79s116.6-31.11,117.29,8.25C729.4,590.08,690.16,726.65,679.76,784.1Z"/><path class="cls-12" d="M653.82,555.4l61.64,446.73s27.07,6.53,48.12,1.31c0,0,18-237.6,16.54-295s13-153.7-3.3-164.31S653.82,555.4,653.82,555.4Z"/><path class="cls-13" d="M788.84,548a8.57,8.57,0,0,1-6.18,8.84c-8.6,2.49-18.51,4.23-37.63,8.19a365.35,365.35,0,0,1-71.8,7.22c-47.21.3-65.09-16-65.09-16-2,0,1.07-9.84,3.87-56.83,1-15.91,1.87-36.08,2.53-61.58.59-22.94,1-50.2,1-82.53,0-38.9,60.26-80.75,61.37-80.75v0c0,5.6,8.83,15.94,22.42,16.83,16.14,1.05,35.94-7,35.94-16.27,0-.09,29.17,46.66,39.53,96.48C780.07,396.67,778,396,788.84,548Z"/><path class="cls-13" d="M676.94,274.54s-56-.48-69.46,18.42-43,120.55-27.6,154.37,44.27-14,60.28-34.71S676.94,274.54,676.94,274.54Z"/><path class="cls-14" d="M676.37,266l0,5.79s-1.57,18.1,20.71,20.74,38.83-3.38,38.23-17.35c-2-10.81-3.87-21.91-4-30.86a62.45,62.45,0,0,1,.79-10.84l-43.18-.86-12.72,2.08Z"/><path class="cls-15" d="M676.21,234.69l.16,31.3a36.57,36.57,0,0,0,15.57,3.44c19.85,0,32.67-14.56,39.38-25.12a62.45,62.45,0,0,1,.79-10.84l-43.18-.86Z"/><path class="cls-14" d="M735.42,226.52c-5,27-39.81,26.08-54.84,24.39-4.24-.47-6.9-1-6.9-1-4.77-1.28-7.43-8.79-8.67-18.64-2.45-19.48.65-48.08,3.94-55.39,4.95-11,14.28-22.91,49.32-14.33S741.85,192,735.42,226.52Z"/><path class="cls-16" d="M619.69,350.29s-21.65,47.82-21,62.15a74.88,74.88,0,0,1,21,2.71C636.62,420.19,619.69,350.29,619.69,350.29Z"/><path class="cls-11" d="M658.2,150.2a116,116,0,0,0,33.61-9.1c14.77-6.42,33.4.65,39.44,3.84a8.94,8.94,0,0,0-1.47-3.64s2.71,1.92,3.11,4.62c.28.2.41.34.33.39s3.08-.56,5.06.33c0,0-1.38-.2-1.88.69a1,1,0,0,1-.22.25c23,11.12,25.16,47.53,17.75,55.95-8.92,10.13-22.39,33.06-22.39,33.06s-1.12-5.5.5-14.42-6.08-8.91-15.81-13-1.62-15.4-10.13-22.29-39.73-2.84-39.32-8.11C655.19,174.58,658.2,151.38,658.2,150.2Z"/><path class="cls-16" d="M742.48,439.87c-9.14,36.7-108,55.67-130.47,59.52,1-15.91,1.87-36.08,2.53-61.58Z"/><path class="cls-14" d="M720.78,451.8c.94,0,22-3.14,25.74-5s21-26.37,9.71-32.64S714.66,433,714.66,433Z"/><path class="cls-13" d="M592.85,459.07s81.35,4.42,135.94-7.27c0,0,1.38-15.77-15.78-22.78,0,0-85.09-18-105.53-13S592.85,459.07,592.85,459.07Z"/><path class="cls-13" d="M779.66,395.23c-16.88,20.36-38.95,37-63.28,40.87h0a45.28,45.28,0,0,1-6-27.16A54.39,54.39,0,0,1,719.21,384a54.24,54.24,0,0,0,4.79-9.65c13.29-33.89,11.31-99.23,11.31-99.23s56.42,5.91,74,31C820.07,321.52,806.34,363.05,779.66,395.23Z"/><path class="cls-15" d="M680.58,250.91c-4.24-.47-6.9-1-6.9-1-4.77-1.28-7.43-8.79-8.67-18.64,9,2.21,13,9.12,14.76,12.06C680.54,244.65,680.7,247.62,680.58,250.91Z"/><path class="cls-14" d="M657.85,266.16s-19.49-32.15-4.34-33.55,21.24,8.85,23.43,12.62-.57,20.76-.57,20.76Z"/><path class="cls-13" d="M732.11,407.85A42,42,0,0,1,728.79,419a53.4,53.4,0,0,1-12.41,17.09h0c-50.61-22.84-60.85-101.28-62.56-144.37-.69-17.32,0-28.94,0-28.94,22.83-7.56,29.24,5.58,29.24,5.58s27,64.09,40.94,106C729.35,390.37,732.79,403.16,732.11,407.85Z"/><path class="cls-16" d="M779.66,395.23c-16.88,20.36-38.95,37-63.28,40.87h0c-50.61-22.84-60.85-101.28-62.56-144.37,0,0,23.94,86.85,56.54,117.21,5.89,5.49,12.06,9.13,18.43,10.08,0,0,41.1-11.61,49.72-22.55A4.63,4.63,0,0,1,779.66,395.23Z"/></g></g></svg>