<svg xmlns="http://www.w3.org/2000/svg" viewBox="0 0 1036.43 715.95"><defs><style>.cls-1{fill:#b0d4ff;}.cls-2{fill:#95c0f4;}.cls-3{fill:#cae5ff;}.cls-4{fill:#233862;}.cls-5{fill:#ffb27d;}.cls-6{fill:#2b478b;}.cls-7{fill:#ed975d;}.cls-8{fill:#fff;}.cls-9{fill:#ebf3ff;}.cls-10{fill:#f99746;}.cls-11{fill:#ed7d2b;}.cls-12{fill:#78acea;}</style></defs><g id="Camada_2" data-name="Camada 2"><g id="Слой_1" data-name="Слой 1"><path class="cls-1" d="M808.66,711H809a3.62,3.62,0,0,0,3.63-3.71l-5.5-238.41L790.93,467l13.81,240.32A3.92,3.92,0,0,0,808.66,711Z"/><path class="cls-2" d="M903.08,711h.34a3.62,3.62,0,0,0,3.63-3.71l-5.5-238.41L885.35,467l13.81,240.32A3.92,3.92,0,0,0,903.08,711Z"/><path class="cls-1" d="M642.53,711h-.34a3.62,3.62,0,0,1-3.63-3.71l5.5-238.41,16.2-1.89L646.45,707.27A3.92,3.92,0,0,1,642.53,711Z"/><path class="cls-1" d="M913.81,454.06V290.69a52.05,52.05,0,0,0-52-52.05H744.06a52.06,52.06,0,0,0-52,52.05V460.3Z"/><path class="cls-2" d="M686.55,454.06H913.81a0,0,0,0,1,0,0v25.79a0,0,0,0,1,0,0H670.92a0,0,0,0,1,0,0V469.69A15.63,15.63,0,0,1,686.55,454.06Z" transform="translate(1584.74 933.91) rotate(180)"/><rect class="cls-3" x="632.13" y="454.06" width="195.04" height="25.79" rx="11.56" transform="translate(1459.31 933.91) rotate(180)"/><path class="cls-1" d="M120.71,711.6h-.35a3.63,3.63,0,0,1-3.63-3.71l5.5-238.41,16.21-1.89L124.62,707.9A3.92,3.92,0,0,1,120.71,711.6Z"/><path class="cls-2" d="M26.29,711.6h-.35a3.63,3.63,0,0,1-3.62-3.71l5.5-238.41L44,467.59,30.2,707.9A3.92,3.92,0,0,1,26.29,711.6Z"/><path class="cls-1" d="M286.83,711.6h.35a3.63,3.63,0,0,0,3.62-3.71l-5.5-238.41-16.2-1.89L282.92,707.9A3.92,3.92,0,0,0,286.83,711.6Z"/><path class="cls-1" d="M15.55,454.7V291.33a52.05,52.05,0,0,1,52.05-52H185.3a52,52,0,0,1,52,52V460.94Z"/><path class="cls-2" d="M15.55,454.7H258.44a0,0,0,0,1,0,0v25.79a0,0,0,0,1,0,0H31.18a15.63,15.63,0,0,1-15.63-15.63V454.7a0,0,0,0,1,0,0Z"/><rect class="cls-1" x="102.19" y="454.7" width="195.04" height="25.79" rx="11.56"/><path class="cls-4" d="M279,414c-16.86,29.35-38.07,40.67-38.07,40.67H152.7S291.86,391.6,279,414Z"/><path class="cls-5" d="M211.23,641.05a8.16,8.16,0,0,0-1.45,8.73l0,0c2.11,5.81,9.06,12.31,17.13,18.79,1,.84,1.95,1.59,2.75,2.3.21.18.42.36.62.55l.48.43c7.53,6.94,4.69,8.53,18.22,22.62,15.43,16,26.05,16.34,29.07,14.87,2.56-1.24-2.64-9.75-8.39-19.32-.28-.46-.55-.93-.84-1.4-.77-1.27-1.53-2.56-2.29-3.84-6.74-11.52-5-16.92-3.41-34.06,1.3-13.92,21.66-77.8,21.66-77.8l-29.56-5.09s-8.9,50.86-18.71,58.7c-5.25,4.17-11.12,4.22-16.16,7.32l-1.05.66A39.14,39.14,0,0,0,211.23,641.05Z"/><path class="cls-4" d="M211.23,641.05a8.16,8.16,0,0,0-1.45,8.73l0,0c2.58,5.81,9.36,12.27,17.16,18.73,1,.85,1.92,1.63,2.72,2.36.21.18.42.36.62.55l.48.43c7.53,6.94,4.69,8.53,18.22,22.62,15.43,16,26.05,16.34,29.07,14.87,2.56-1.24-2.64-9.75-8.39-19.32a65.78,65.78,0,0,1-27.5-20.27c-9.29-11.85-15.48-27.08-21.81-35.9l-1.05.66A39.14,39.14,0,0,0,211.23,641.05Z"/><path class="cls-5" d="M449.61,622.59c1.83,9.12,14.83,7.6,29.37,4s11.08.67,31.76-1.62,27-10,27.58-13.08c.56-2.73-9.66-3.69-20.62-5-1.38-.15-2.76-.32-4.15-.5-12.37-1.55-21.44-9.53-32.68-16.09-10.65-6.22-26.54-31.53-26.54-31.53L426,561.12s14.88,22.61,20.64,32.44c3.39,5.78,3.21,13.42,2.78,19.33A36.26,36.26,0,0,0,449.61,622.59Z"/><path class="cls-4" d="M479,626.64c14.53-3.55,11.08.67,31.76-1.62s27-10,27.58-13.08c.56-2.73-9.66-3.69-20.62-5l-.1.21A58.3,58.3,0,0,1,488,616.41c-14,.34-28.9-3.68-38.59-3.52a36.26,36.26,0,0,0,.22,9.7C451.44,631.71,464.44,630.19,479,626.64Z"/><path class="cls-4" d="M340.91,441.22,314.4,512.57l-34.62,93.16a56,56,0,0,1-18.39-1.68c-8.29-2.39-17.79-8.66-17.79-8.66s9.61-100,27.54-157.45c4.6-14.74,9.75-26.66,15.43-33.37C314.37,371.72,340.91,441.22,340.91,441.22Z"/><path class="cls-6" d="M314,327.9c-17.37-5.6-66.92,1.6-116.69,11.34l-10.42-17.19-107.5-8.4s-35.47,78.67-16.05,128.8c2.85,7.36,8.53,12.09,18.19,12.25h1.57l84.76,0c53.46,0,113.15-36.75,120.87-38.3,12.63-2.52,17.69,22.75,30.33,49.29S437.8,583.17,437.8,583.17s16.31.17,23.05-2.36c7.25-2.72,9.9-6.25,9.9-6.25S353.13,340.54,314,327.9Z"/><path class="cls-4" d="M182.61,9C168.84,1.79,147.89.81,144.48.36,103.75-5.12,79.23,54.08,77.79,72c-2.66,33.06-20.15,38.1-44.76,58.81-49.36,41.51-34.89,89.75-7.9,107.68,16.19,10.75,44.74,0,44.74,0,.4.28,78.06-43.42,116.34-64.5C243.6,165.85,217.71,27.45,182.61,9Z"/><path class="cls-5" d="M154.13,156.06c.16.11-18.84,6.6-31.55,1-12-5.28-21-24.95-20.83-25,5.44-.25,11.41-5,16-36.2l2.31.83,38.94,14s-2.82,12.49-4.65,24.39C152.82,145.08,152,154.65,154.13,156.06Z"/><path class="cls-7" d="M159,110.71s-2.82,12.49-4.65,24.39c-22.36-4-31.14-26.31-34.29-38.4Z"/><path class="cls-5" d="M164.8,123.11S111.54,116,116.5,82.86s1.43-56.33,35.65-53.16,38.92,16.78,39.95,28.24S178.79,124.12,164.8,123.11Z"/><path class="cls-4" d="M190.16,39.79s-34.1,29.39-57.3,31.76-32-5.08-32-5.08a90.59,90.59,0,0,0,21.9-29.67,16.28,16.28,0,0,1,13.44-9.61C152.8,25.76,184.19,25.1,190.16,39.79Z"/><path class="cls-4" d="M168.84,37.16s11.41,11,15,19.21c3.47,7.89,4.51,26.78,1.75,34.28,0,0,17.77-34.56,7.71-51.35C182.63,21.49,168.84,37.16,168.84,37.16Z"/><path class="cls-8" d="M199,234.53c-1.61,107.83-.44,85.3-12.24,95.53-2.84,2.46-10.83,3.93-21.34,4.63-33.07,2.19-91.19-3.26-93.4-9.37-7.63-21.14-2.24-27.71-8.61-60.08-.66-3.44-1.48-7.16-2.44-11.22-5.31-22.23-10.47-29.8,8.35-65.52,17.07-32.35,34.8-58.61,36.39-57.66,45,26.73,48.67,4.26,48.67,4.26S199.77,181.94,199,234.53Z"/><path class="cls-6" d="M314.4,512.57l-34.62,93.16a56,56,0,0,1-18.39-1.68c-8.29-2.39-17.79-8.66-17.79-8.66s9.61-100,27.54-157.45Z"/><path class="cls-8" d="M154.36,135.1s46.34,7.85,51.78,27.8S243.6,300.14,243.6,300.14s-23.56,4.23-34.44-6.65-37.86-101-37.86-101Z"/><path class="cls-9" d="M165.4,334.69c-33.07,2.19-91.19-3.26-93.4-9.37-7.63-21.14-2.24-27.71-8.61-60.08l16-44.9s-2.64,50,12.11,63.16,60.38,25.39,67.55,36.38C162.46,325.15,164.73,330.44,165.4,334.69Z"/><path class="cls-5" d="M127.51,313.65s32.62-7.26,37.89-4.36,18.12,13.43,19.73,17.1-11.71-2.78-16-3.94c-2.81-.76-10.2,1.81-13.86,3C139.83,330.61,130.4,328,130.4,328Z"/><path class="cls-8" d="M105.67,130.82s-43.8,2.69-59,23.84C25.36,184.43-17,311.3,7.29,328.22c27.32,19.06,124.37,5,124.37,5s3.23-15.1-1.26-22.4-77.52-19.1-80.89-22.47,42.13-65.71,42.13-75.82S105.67,130.82,105.67,130.82Z"/><path class="cls-5" d="M167,318.37s6.83,8.81,9.07,9.86a6.61,6.61,0,0,0,3.69.79l-4.61-8.29Z"/><path class="cls-5" d="M165.4,309.29l19.87,9.65s-.85,1.38-3.29,1.27-8.62-2.37-8.62-2.37Z"/><polygon class="cls-10" points="176.05 341.74 333.24 341.74 380.52 224.15 223.58 224.15 176.05 341.74"/><polygon class="cls-11" points="335.08 337.16 127.51 337.16 127.51 341.74 333.24 341.74 335.08 337.16"/><path class="cls-8" d="M293.56,283c1.18-4.14-1.2-7.49-5.34-7.49s-8.44,3.35-9.63,7.49,1.21,7.48,5.34,7.48A10.73,10.73,0,0,0,293.56,283Z"/><path class="cls-12" d="M997,716h.46a5,5,0,0,0,4.8-5.2L995,377l-21.43-2.64,18.28,336.47A5.31,5.31,0,0,0,997,716Z"/><path class="cls-12" d="M128.29,716h-.45a5,5,0,0,1-4.8-5.2L130.31,377l21.43-2.64L133.47,710.78A5.33,5.33,0,0,1,128.29,716Z"/><rect class="cls-12" x="92.49" y="342.82" width="943.94" height="40.28" rx="13.6"/><polygon class="cls-6" points="719.28 342.82 562.1 342.82 514.81 225.23 671.76 225.23 719.28 342.82"/><polygon class="cls-6" points="560.25 338.23 767.82 338.23 767.82 342.82 562.1 342.82 560.25 338.23"/><path class="cls-8" d="M601.78,284c-1.19-4.13,1.2-7.48,5.33-7.48a10.71,10.71,0,0,1,9.63,7.48c1.19,4.14-1.2,7.49-5.33,7.49A10.71,10.71,0,0,1,601.78,284Z"/></g></g></svg>